<svg width="1200" height="1200" viewBox="0 0 1200 1200" fill="none" xmlns="http://www.w3.org/2000/svg">
<rect width="1200" height="1200" fill="#092B2E"/>
<path d="M125.376 682.096H174.624V603.412C174.624 574.54 185.246 565.974 201.019 565.974C216.147 565.974 223.872 574.54 223.872 595.798V682.096H273.443V603.412C273.443 574.54 284.065 565.974 299.515 565.974C314.644 565.974 322.691 574.857 322.691 596.115V682.096H372.261V587.231C372.261 555.187 361.639 525.046 317.219 525.046C294.365 525.046 276.018 536.785 267.649 553.283C260.889 537.102 246.726 525.046 219.044 525.046C197.478 525.046 181.384 536.15 174.624 551.379V529.17H125.376V682.096Z" fill="white"/>
<path d="M416.553 518.729C434.257 518.729 447.132 505.404 447.132 489.223C447.132 472.724 434.257 459.399 416.553 459.399C398.85 459.399 386.296 472.724 386.296 489.223C386.296 505.404 398.85 518.729 416.553 518.729ZM392.09 682.096H441.017V534.939H392.09V682.096Z" fill="white"/>
<path d="M578.411 529.17V551.062C570.685 535.198 551.694 525.046 530.45 525.046C485.708 525.046 456.095 558.994 456.095 604.047C456.095 649.099 483.777 682.096 529.806 682.096C550.085 682.096 570.685 672.578 578.411 657.348V677.654C578.411 704.939 564.569 714.775 541.716 714.775C521.759 714.775 511.137 707.478 508.883 695.421H458.67C459.313 711.919 470.579 728.418 486.352 737.936C501.48 746.819 520.149 750.309 542.359 750.309C564.569 750.309 583.56 746.502 597.723 736.667C616.714 723.659 627.337 701.767 627.659 672.26V529.17H578.411ZM543.325 644.658C521.115 644.658 506.63 627.842 506.63 604.681C506.63 581.52 521.115 564.705 543.325 564.705C566.823 564.705 580.663 582.472 580.663 604.681C580.663 626.89 566.823 644.658 543.325 644.658Z" fill="white"/>
<path d="M747.202 525.046C723.704 525.046 706.001 534.247 696.988 551.379V460.005H647.74V682.096H696.988V602.143C696.988 578.665 707.289 565.974 726.923 565.974C746.88 565.974 754.284 577.713 754.284 603.412V682.096H803.854V587.548C803.854 545.986 784.862 525.046 747.202 525.046Z" fill="white"/>
<path d="M894.636 644.34C882.404 644.34 873.069 640.85 873.069 618.324V567.56H911.696V529.17H873.069V483.8H823.821V628.477C823.821 679.558 855.688 684.634 878.863 684.634C896.541 684.634 916.087 679.933 927.06 676.443C927.06 676.443 921.307 665.626 919.112 659.858C916.918 654.089 913.892 643.273 913.892 643.273C909.386 643.908 900.108 644.34 894.636 644.34Z" fill="white"/>
<path d="M1036.13 529.17V604.998C1036.13 628.477 1026.15 643.706 1006.2 643.706C985.597 643.706 978.837 630.38 978.837 610.709V529.17H929.589V618.007C929.589 656.079 947.292 682.096 986.884 682.096C1010.38 682.096 1027.44 672.895 1036.13 656.714V680.509C1036.13 704.305 1024.22 714.775 1006.2 714.775C987.528 714.775 980.125 707.16 979.159 694.152H929.589C929.911 710.65 937.636 724.928 948.902 734.446C961.777 744.916 979.803 750.309 1006.2 750.309C1032.27 750.309 1049.33 744.281 1063.17 732.542C1076.37 720.803 1085.38 702.084 1085.38 677.337V529.17H1036.13Z" fill="white"/>
</svg>
